<svg xmlns="http://www.w3.org/2000/svg" xmlns:xlink="http://www.w3.org/1999/xlink" contentStyleType="text/css" height="576px" preserveAspectRatio="none" style="width:1244px;height:576px;background:#FFFFFF;" version="1.1" viewBox="0 0 1244 576" width="1244px" zoomAndPan="magnify"><defs/><g><!--class BaseDataLoader--><g id="elem_BaseDataLoader"><rect codeLine="2" fill="#F1F1F1" height="141.1055" id="BaseDataLoader" rx="2.5" ry="2.5" style="stroke:#181818;stroke-width:0.5;" width="462.1533" x="7" y="227"/><ellipse cx="181.2891" cy="243" fill="#A9DCDF" rx="11" ry="11" style="stroke:#181818;stroke-width:1.0;"/><path d="M183.4766,244.7656 L179.3359,244.7656 L178.9141,245.7969 L179.3359,245.7969 Q179.9453,245.7969 180.2109,246.0313 Q180.4766,246.2656 180.4766,246.6563 Q180.4766,247.0313 180.2109,247.2656 Q179.9453,247.5 179.3359,247.5 L177.0391,247.5 Q176.4297,247.5 176.1797,247.2656 Q175.9141,247.0313 175.9141,246.6406 Q175.9141,246.2656 176.1953,246.0313 Q176.4609,245.7813 177.0859,245.7969 L179.7578,239.1406 L178.6484,239.1406 Q178.0391,239.1406 177.7734,238.9063 Q177.5078,238.6719 177.5078,238.2813 Q177.5078,237.9063 177.7734,237.6719 Q178.0391,237.4375 178.6484,237.4375 L182.3203,237.4375 L185.7109,245.7969 Q186.3047,245.7969 186.4922,245.9375 Q186.8828,246.2031 186.8828,246.6563 Q186.8828,247.0313 186.6172,247.2656 Q186.3672,247.5 185.7578,247.5 L183.4609,247.5 Q182.8516,247.5 182.5859,247.2656 Q182.3203,247.0313 182.3203,246.6406 Q182.3203,246.2656 182.5859,246.0313 Q182.8516,245.7969 183.4609,245.7969 L183.8828,245.7969 L183.4766,244.7656 Z M182.7578,243.0625 L181.3984,239.6875 L180.0234,243.0625 L182.7578,243.0625 Z " fill="#000000"/><text fill="#000000" font-family="sans-serif" font-size="14" font-style="italic" lengthAdjust="spacing" textLength="105.0752" x="201.7891" y="248.7969">BaseDataLoader</text><line style="stroke:#181818;stroke-width:0.5;" x1="8" x2="468.1533" y1="259" y2="259"/><line style="stroke:#181818;stroke-width:0.5;" x1="8" x2="468.1533" y1="267" y2="267"/><ellipse cx="18" cy="281.8105" fill="#84BE84" rx="3" ry="3" style="stroke:#038048;stroke-width:1.0;"/><text fill="#000000" font-family="sans-serif" font-size="14" lengthAdjust="spacing" textLength="221.3682" x="27" y="286.1074">load_data(path: str) -&gt; Dict[str, Any]</text><ellipse cx="18" cy="300.4316" fill="#84BE84" rx="3" ry="3" style="stroke:#038048;stroke-width:1.0;"/><text fill="#000000" font-family="sans-serif" font-size="14" lengthAdjust="spacing" textLength="415.1055" x="27" y="304.7285">get_point_cloud(self, data: Dict[str, Any], **kwargs) -&gt; Dict[str, Any]</text><ellipse cx="18" cy="319.0527" fill="#84BE84" rx="3" ry="3" style="stroke:#038048;stroke-width:1.0;"/><text fill="#000000" font-family="sans-serif" font-size="14" lengthAdjust="spacing" textLength="299.1953" x="27" y="323.3496">normalize(self, points: np.ndarray) -&gt; np.ndarray</text><ellipse cx="18" cy="337.6738" fill="#84BE84" rx="3" ry="3" style="stroke:#038048;stroke-width:1.0;"/><text fill="#000000" font-family="sans-serif" font-size="14" lengthAdjust="spacing" textLength="407.3125" x="27" y="341.9707">get_dataset_files(self, input_dir: str, split: str) -&gt; List[Dict[str, Any]]</text><ellipse cx="18" cy="356.2949" fill="#84BE84" rx="3" ry="3" style="stroke:#038048;stroke-width:1.0;"/><text fill="#000000" font-family="sans-serif" font-size="14" lengthAdjust="spacing" textLength="436.1533" x="27" y="360.5918">get_save_path(self, file_info: Dict[str, Any], base_save_path: str) -&gt; str</text></g><!--class BasePatchCutter--><g id="elem_BasePatchCutter"><rect codeLine="10" fill="#F1F1F1" height="103.8633" id="BasePatchCutter" rx="2.5" ry="2.5" style="stroke:#181818;stroke-width:0.5;" width="732.9863" x="504.5" y="245.5"/><ellipse cx="813.8262" cy="261.5" fill="#A9DCDF" rx="11" ry="11" style="stroke:#181818;stroke-width:1.0;"/><path d="M816.0137,263.2656 L811.873,263.2656 L811.4512,264.2969 L811.873,264.2969 Q812.4824,264.2969 812.748,264.5313 Q813.0137,264.7656 813.0137,265.1563 Q813.0137,265.5313 812.748,265.7656 Q812.4824,266 811.873,266 L809.5762,266 Q808.9668,266 808.7168,265.7656 Q808.4512,265.5313 808.4512,265.1406 Q808.4512,264.7656 808.7324,264.5313 Q808.998,264.2813 809.623,264.2969 L812.2949,257.6406 L811.1855,257.6406 Q810.5762,257.6406 810.3105,257.4063 Q810.0449,257.1719 810.0449,256.7813 Q810.0449,256.4063 810.3105,256.1719 Q810.5762,255.9375 811.1855,255.9375 L814.8574,255.9375 L818.248,264.2969 Q818.8418,264.2969 819.0293,264.4375 Q819.4199,264.7031 819.4199,265.1563 Q819.4199,265.5313 819.1543,265.7656 Q818.9043,266 818.2949,266 L815.998,266 Q815.3887,266 815.123,265.7656 Q814.8574,265.5313 814.8574,265.1406 Q814.8574,264.7656 815.123,264.5313 Q815.3887,264.2969 815.998,264.2969 L816.4199,264.2969 L816.0137,263.2656 Z M815.2949,261.5625 L813.9355,258.1875 L812.5605,261.5625 L815.2949,261.5625 Z " fill="#000000"/><text fill="#000000" font-family="sans-serif" font-size="14" font-style="italic" lengthAdjust="spacing" textLength="105.834" x="834.3262" y="267.2969">BasePatchCutter</text><line style="stroke:#181818;stroke-width:0.5;" x1="505.5" x2="1236.4863" y1="277.5" y2="277.5"/><line style="stroke:#181818;stroke-width:0.5;" x1="505.5" x2="1236.4863" y1="285.5" y2="285.5"/><ellipse cx="515.5" cy="300.3105" fill="#84BE84" rx="3" ry="3" style="stroke:#038048;stroke-width:1.0;"/><text fill="#000000" font-family="sans-serif" font-size="14" lengthAdjust="spacing" textLength="425.9814" x="524.5" y="304.6074">cut_patches(self, data: Dict[str, Any], **kwargs) -&gt; List[Dict[str, Any]]}</text><ellipse cx="515.5" cy="318.9316" fill="#84BE84" rx="3" ry="3" style="stroke:#038048;stroke-width:1.0;"/><text fill="#000000" font-family="sans-serif" font-size="14" lengthAdjust="spacing" textLength="706.9863" x="524.5" y="323.2285">sample_and_group(self, points: Tensor, npoint: int, nsample: int, indices: np.ndarray) -&gt; Tuple[Tensor, np.ndarray]</text><ellipse cx="515.5" cy="337.5527" fill="#84BE84" rx="3" ry="3" style="stroke:#038048;stroke-width:1.0;"/><text fill="#000000" font-family="sans-serif" font-size="14" lengthAdjust="spacing" textLength="633.0693" x="524.5" y="341.8496">sample_query_points(self, target_points: np.ndarray, query_num: int) -&gt; Tuple[np.ndarray, np.ndarray]</text></g><!--class MVTec3DLoader--><g id="elem_MVTec3DLoader"><rect codeLine="16" fill="#F1F1F1" height="141.1055" id="MVTec3DLoader" rx="2.5" ry="2.5" style="stroke:#181818;stroke-width:0.5;" width="462.1533" x="7" y="428"/><ellipse cx="180.9131" cy="444" fill="#ADD1B2" rx="11" ry="11" style="stroke:#181818;stroke-width:1.0;"/><path d="M183.6787,439.875 Q183.835,439.6563 184.0225,439.5469 Q184.21,439.4375 184.4287,439.4375 Q184.8037,439.4375 185.0381,439.7031 Q185.2725,439.9531 185.2725,440.5625 L185.2725,442.0156 Q185.2725,442.625 185.0381,442.8906 Q184.8037,443.1563 184.4287,443.1563 Q184.085,443.1563 183.8818,442.9531 Q183.6787,442.7656 183.5693,442.25 Q183.5225,441.8906 183.335,441.7031 Q183.0068,441.3281 182.3975,441.1094 Q181.7881,440.8906 181.1631,440.8906 Q180.3975,440.8906 179.7568,441.2188 Q179.1318,441.5469 178.6318,442.2969 Q178.1475,443.0469 178.1475,444.0781 L178.1475,445.1719 Q178.1475,446.4063 179.0381,447.2344 Q179.9287,448.0469 181.5225,448.0469 Q182.46,448.0469 183.1162,447.7969 Q183.5068,447.6406 183.9287,447.2031 Q184.1943,446.9375 184.335,446.8594 Q184.4912,446.7813 184.6943,446.7813 Q185.0225,446.7813 185.2725,447.0469 Q185.5381,447.2969 185.5381,447.6406 Q185.5381,447.9844 185.1943,448.3906 Q184.6943,448.9688 183.8975,449.2969 Q182.8193,449.75 181.5225,449.75 Q180.0068,449.75 178.8037,449.125 Q177.8193,448.625 177.1318,447.5625 Q176.4443,446.4844 176.4443,445.2031 L176.4443,444.0469 Q176.4443,442.7188 177.0537,441.5781 Q177.6787,440.4219 178.7725,439.8125 Q179.8662,439.1875 181.1006,439.1875 Q181.835,439.1875 182.4756,439.3594 Q183.1318,439.5156 183.6787,439.875 Z " fill="#000000"/><text fill="#000000" font-family="sans-serif" font-size="14" lengthAdjust="spacing" textLength="105.8271" x="201.4131" y="449.7969">MVTec3DLoader</text><line style="stroke:#181818;stroke-width:0.5;" x1="8" x2="468.1533" y1="460" y2="460"/><line style="stroke:#181818;stroke-width:0.5;" x1="8" x2="468.1533" y1="468" y2="468"/><ellipse cx="18" cy="482.8105" fill="#84BE84" rx="3" ry="3" style="stroke:#038048;stroke-width:1.0;"/><text fill="#000000" font-family="sans-serif" font-size="14" lengthAdjust="spacing" textLength="221.3682" x="27" y="487.1074">load_data(path: str) -&gt; Dict[str, Any]</text><ellipse cx="18" cy="501.4316" fill="#84BE84" rx="3" ry="3" style="stroke:#038048;stroke-width:1.0;"/><text fill="#000000" font-family="sans-serif" font-size="14" lengthAdjust="spacing" textLength="415.1055" x="27" y="505.7285">get_point_cloud(self, data: Dict[str, Any], **kwargs) -&gt; Dict[str, Any]</text><ellipse cx="18" cy="520.0527" fill="#84BE84" rx="3" ry="3" style="stroke:#038048;stroke-width:1.0;"/><text fill="#000000" font-family="sans-serif" font-size="14" lengthAdjust="spacing" textLength="299.1953" x="27" y="524.3496">normalize(self, points: np.ndarray) -&gt; np.ndarray</text><ellipse cx="18" cy="538.6738" fill="#84BE84" rx="3" ry="3" style="stroke:#038048;stroke-width:1.0;"/><text fill="#000000" font-family="sans-serif" font-size="14" lengthAdjust="spacing" textLength="407.3125" x="27" y="542.9707">get_dataset_files(self, input_dir: str, split: str) -&gt; List[Dict[str, Any]]</text><ellipse cx="18" cy="557.2949" fill="#84BE84" rx="3" ry="3" style="stroke:#038048;stroke-width:1.0;"/><text fill="#000000" font-family="sans-serif" font-size="14" lengthAdjust="spacing" textLength="436.1533" x="27" y="561.5918">get_save_path(self, file_info: Dict[str, Any], base_save_path: str) -&gt; str</text></g><!--class MVTec3DPatchCutter--><g id="elem_MVTec3DPatchCutter"><rect codeLine="25" fill="#F1F1F1" height="141.1055" id="MVTec3DPatchCutter" rx="2.5" ry="2.5" style="stroke:#181818;stroke-width:0.5;" width="732.9863" x="504.5" y="428"/><ellipse cx="798.6641" cy="444" fill="#ADD1B2" rx="11" ry="11" style="stroke:#181818;stroke-width:1.0;"/><path d="M801.4297,439.875 Q801.5859,439.6563 801.7734,439.5469 Q801.9609,439.4375 802.1797,439.4375 Q802.5547,439.4375 802.7891,439.7031 Q803.0234,439.9531 803.0234,440.5625 L803.0234,442.0156 Q803.0234,442.625 802.7891,442.8906 Q802.5547,443.1563 802.1797,443.1563 Q801.8359,443.1563 801.6328,442.9531 Q801.4297,442.7656 801.3203,442.25 Q801.2734,441.8906 801.0859,441.7031 Q800.7578,441.3281 800.1484,441.1094 Q799.5391,440.8906 798.9141,440.8906 Q798.1484,440.8906 797.5078,441.2188 Q796.8828,441.5469 796.3828,442.2969 Q795.8984,443.0469 795.8984,444.0781 L795.8984,445.1719 Q795.8984,446.4063 796.7891,447.2344 Q797.6797,448.0469 799.2734,448.0469 Q800.2109,448.0469 800.8672,447.7969 Q801.2578,447.6406 801.6797,447.2031 Q801.9453,446.9375 802.0859,446.8594 Q802.2422,446.7813 802.4453,446.7813 Q802.7734,446.7813 803.0234,447.0469 Q803.2891,447.2969 803.2891,447.6406 Q803.2891,447.9844 802.9453,448.3906 Q802.4453,448.9688 801.6484,449.2969 Q800.5703,449.75 799.2734,449.75 Q797.7578,449.75 796.5547,449.125 Q795.5703,448.625 794.8828,447.5625 Q794.1953,446.4844 794.1953,445.2031 L794.1953,444.0469 Q794.1953,442.7188 794.8047,441.5781 Q795.4297,440.4219 796.5234,439.8125 Q797.6172,439.1875 798.8516,439.1875 Q799.5859,439.1875 800.2266,439.3594 Q800.8828,439.5156 801.4297,439.875 Z " fill="#000000"/><text fill="#000000" font-family="sans-serif" font-size="14" lengthAdjust="spacing" textLength="136.1582" x="819.1641" y="449.7969">MVTec3DPatchCutter</text><line style="stroke:#181818;stroke-width:0.5;" x1="505.5" x2="1236.4863" y1="460" y2="460"/><ellipse cx="515.5" cy="474.8105" fill="none" rx="3" ry="3" style="stroke:#038048;stroke-width:1.0;"/><text fill="#000000" font-family="sans-serif" font-size="14" lengthAdjust="spacing" textLength="91.0547" x="524.5" y="479.1074">group_size: int</text><ellipse cx="515.5" cy="493.4316" fill="none" rx="3" ry="3" style="stroke:#038048;stroke-width:1.0;"/><text fill="#000000" font-family="sans-serif" font-size="14" lengthAdjust="spacing" textLength="88.7168" x="524.5" y="497.7285">group_mul: int</text><line style="stroke:#181818;stroke-width:0.5;" x1="505.5" x2="1236.4863" y1="505.2422" y2="505.2422"/><ellipse cx="515.5" cy="520.0527" fill="#84BE84" rx="3" ry="3" style="stroke:#038048;stroke-width:1.0;"/><text fill="#000000" font-family="sans-serif" font-size="14" lengthAdjust="spacing" textLength="425.9814" x="524.5" y="524.3496">cut_patches(self, data: Dict[str, Any], **kwargs) -&gt; List[Dict[str, Any]]}</text><ellipse cx="515.5" cy="538.6738" fill="#84BE84" rx="3" ry="3" style="stroke:#038048;stroke-width:1.0;"/><text fill="#000000" font-family="sans-serif" font-size="14" lengthAdjust="spacing" textLength="706.9863" x="524.5" y="542.9707">sample_and_group(self, points: Tensor, npoint: int, nsample: int, indices: np.ndarray) -&gt; Tuple[Tensor, np.ndarray]</text><ellipse cx="515.5" cy="557.2949" fill="#84BE84" rx="3" ry="3" style="stroke:#038048;stroke-width:1.0;"/><text fill="#000000" font-family="sans-serif" font-size="14" lengthAdjust="spacing" textLength="633.0693" x="524.5" y="561.5918">sample_query_points(self, target_points: np.ndarray, query_num: int) -&gt; Tuple[np.ndarray, np.ndarray]</text></g><!--class PatchCutterService--><g id="elem_PatchCutterService"><rect codeLine="34" fill="#F1F1F1" height="159.7266" id="PatchCutterService" rx="2.5" ry="2.5" style="stroke:#181818;stroke-width:0.5;" width="536.0566" x="286" y="7"/><ellipse cx="489.4751" cy="23" fill="#ADD1B2" rx="11" ry="11" style="stroke:#181818;stroke-width:1.0;"/><path d="M492.2407,18.875 Q492.397,18.6563 492.5845,18.5469 Q492.772,18.4375 492.9907,18.4375 Q493.3657,18.4375 493.6001,18.7031 Q493.8345,18.9531 493.8345,19.5625 L493.8345,21.0156 Q493.8345,21.625 493.6001,21.8906 Q493.3657,22.1563 492.9907,22.1563 Q492.647,22.1563 492.4438,21.9531 Q492.2407,21.7656 492.1313,21.25 Q492.0845,20.8906 491.897,20.7031 Q491.5688,20.3281 490.9595,20.1094 Q490.3501,19.8906 489.7251,19.8906 Q488.9595,19.8906 488.3188,20.2188 Q487.6938,20.5469 487.1938,21.2969 Q486.7095,22.0469 486.7095,23.0781 L486.7095,24.1719 Q486.7095,25.4063 487.6001,26.2344 Q488.4907,27.0469 490.0845,27.0469 Q491.022,27.0469 491.6782,26.7969 Q492.0688,26.6406 492.4907,26.2031 Q492.7563,25.9375 492.897,25.8594 Q493.0532,25.7813 493.2563,25.7813 Q493.5845,25.7813 493.8345,26.0469 Q494.1001,26.2969 494.1001,26.6406 Q494.1001,26.9844 493.7563,27.3906 Q493.2563,27.9688 492.4595,28.2969 Q491.3813,28.75 490.0845,28.75 Q488.5688,28.75 487.3657,28.125 Q486.3813,27.625 485.6938,26.5625 Q485.0063,25.4844 485.0063,24.2031 L485.0063,23.0469 Q485.0063,21.7188 485.6157,20.5781 Q486.2407,19.4219 487.3345,18.8125 Q488.4282,18.1875 489.6626,18.1875 Q490.397,18.1875 491.0376,18.3594 Q491.6938,18.5156 492.2407,18.875 Z " fill="#000000"/><text fill="#000000" font-family="sans-serif" font-size="14" lengthAdjust="spacing" textLength="120.6064" x="509.9751" y="28.7969">PatchCutterService</text><line style="stroke:#181818;stroke-width:0.5;" x1="287" x2="821.0566" y1="39" y2="39"/><ellipse cx="297" cy="53.8105" fill="none" rx="3" ry="3" style="stroke:#038048;stroke-width:1.0;"/><text fill="#000000" font-family="sans-serif" font-size="14" lengthAdjust="spacing" textLength="186.8057" x="306" y="58.1074">data_loader: BaseDataLoader</text><ellipse cx="297" cy="72.4316" fill="none" rx="3" ry="3" style="stroke:#038048;stroke-width:1.0;"/><text fill="#000000" font-family="sans-serif" font-size="14" lengthAdjust="spacing" textLength="190.6611" x="306" y="76.7285">patch_cutter: BasePatchCutter</text><ellipse cx="297" cy="91.0527" fill="none" rx="3" ry="3" style="stroke:#038048;stroke-width:1.0;"/><text fill="#000000" font-family="sans-serif" font-size="14" lengthAdjust="spacing" textLength="87.9375" x="306" y="95.3496">save_path: str</text><line style="stroke:#181818;stroke-width:0.5;" x1="287" x2="821.0566" y1="102.8633" y2="102.8633"/><ellipse cx="297" cy="117.6738" fill="#84BE84" rx="3" ry="3" style="stroke:#038048;stroke-width:1.0;"/><text fill="#000000" font-family="sans-serif" font-size="14" lengthAdjust="spacing" textLength="292.9268" x="306" y="121.9707">process_file(self, input_file: str) -&gt; Dict[str, Any]</text><ellipse cx="297" cy="136.2949" fill="#84BE84" rx="3" ry="3" style="stroke:#038048;stroke-width:1.0;"/><text fill="#000000" font-family="sans-serif" font-size="14" lengthAdjust="spacing" textLength="348.1543" x="306" y="140.5918">process_directory(self, input_dir: str, split: str) -&gt; List[str]</text><ellipse cx="297" cy="154.916" fill="#84BE84" rx="3" ry="3" style="stroke:#038048;stroke-width:1.0;"/><text fill="#000000" font-family="sans-serif" font-size="14" lengthAdjust="spacing" textLength="510.0566" x="306" y="159.2129">save_patches(self, patches: Dict[str, np.ndarray], save_path: str, split: str) -&gt; None</text></g><!--reverse link BaseDataLoader to MVTec3DLoader--><g id="link_BaseDataLoader_MVTec3DLoader"><path codeLine="44" d="M238,386.1 C238,405.49 238,408.55 238,427.94 " fill="none" id="BaseDataLoader-backto-MVTec3DLoader" style="stroke:#181818;stroke-width:1.0;stroke-dasharray:7.0,7.0;"/><polygon fill="none" points="238,368.1,232,386.1,244,386.1,238,368.1" style="stroke:#181818;stroke-width:1.0;"/></g><!--reverse link BasePatchCutter to MVTec3DPatchCutter--><g id="link_BasePatchCutter_MVTec3DPatchCutter"><path codeLine="45" d="M871,367.75 C871,391.47 871,402.02 871,427.68 " fill="none" id="BasePatchCutter-backto-MVTec3DPatchCutter" style="stroke:#181818;stroke-width:1.0;stroke-dasharray:7.0,7.0;"/><polygon fill="none" points="871,349.75,865,367.75,877,367.75,871,349.75" style="stroke:#181818;stroke-width:1.0;"/></g><!--reverse link PatchCutterService to BaseDataLoader--><g id="link_PatchCutterService_BaseDataLoader"><path codeLine="47" d="M424.0645,173.7299 C394.2145,193.4299 372.44,207.79 343.35,226.99 " fill="none" id="PatchCutterService-backto-BaseDataLoader" style="stroke:#181818;stroke-width:1.0;"/><polygon fill="none" points="434.08,167.12,426.869,167.0864,424.0645,173.7299,431.2756,173.7634,434.08,167.12" style="stroke:#181818;stroke-width:1.0;"/></g><!--reverse link PatchCutterService to BasePatchCutter--><g id="link_PatchCutterService_BasePatchCutter"><path codeLine="48" d="M684.325,173.7154 C724.255,199.9854 757.61,221.92 793.44,245.48 " fill="none" id="PatchCutterService-backto-BasePatchCutter" style="stroke:#181818;stroke-width:1.0;"/><polygon fill="none" points="674.3,167.12,677.114,173.7594,684.325,173.7154,681.511,167.0761,674.3,167.12" style="stroke:#181818;stroke-width:1.0;"/></g><!--SRC=[xLLDJyCm3BttL-G8ezk5MuMGW1q18J5ncQR8IxCHaIKbIOV6nt_7ITirQmSQ4iUTMZlsi_towiBSEWFC4IR1Md8Dbe_1mQs6d1loaP0p8l6TvkWyAS0zPmGJJidmaem5SrCqKdAbDZCVkUIE5beeHvdKPNvYkLoanATcdUYK30OlRs2MzWSefSqAf7ZdDKY0jHbHnKZbO0niGc9hDlLzDOlFXP3Srib25IMU21EQJuajf73j8BV2kkbk2zjnBAmvzNFNK1wM2hNG_OdcMBUDR-7ncNmb2VIPVW37dczAvngg6RPPUEUszGF8szV-bqUpi2gmMr0vNHfT5Xqg9rnPZGagE39aoQ5H9TMMKBbWl4_xfCIOQGlG7CwYigybDvjA3iqm3djk9B83cf8gMfMhK3ag4WV5XP3HYiYxfmbdv-EZOlzNiJs2Us8Dcg8M9mvtrhfMfTnwZee-MD4jun7LZzoiiU6ASKyTbK7eMMTL- -F0CsKXB-ikc6gE-AgJa6Cqqc63-7Qqvns_VJbD8cgKCwVDvW_AHMCMznEfexPYWKGSfPqHUl3tMd7FO-S_Tl4v6kqkYgIxV-EGcBPapsNeuR1B_ozHCTet]--></g></svg>